<svg width="21" height="21" viewBox="0 0 21 21" fill="none" xmlns="http://www.w3.org/2000/svg">
<mask id="mask0_24_3063" style="mask-type:alpha" maskUnits="userSpaceOnUse" x="0" y="0" width="21" height="21">
<circle cx="10.5" cy="10.5" r="10.5" fill="#D9D9D9"/>
</mask>
<g mask="url(#mask0_24_3063)">
<circle cx="11" cy="10" r="13" fill="white"/>
<mask id="mask1_24_3063" style="mask-type:luminance" maskUnits="userSpaceOnUse" x="4" y="6" width="6" height="10">
<path d="M4.09466 7.25671C3.93756 7.98601 4.01078 14.2534 4.06747 14.9786C4.10664 15.5114 4.32841 15.8225 4.9451 15.8102C9.24799 15.7401 10.3766 10.4584 7.71891 7.97274C7.29337 7.57527 6.77485 7.24862 6.15066 7.02671C5.8371 6.91458 5.31984 6.75193 4.87868 6.75193C4.50058 6.75193 4.17706 6.87349 4.09466 7.25671Z" fill="white"/>
</mask>
<g mask="url(#mask1_24_3063)">
<path d="M4.09466 7.25671C3.93756 7.98601 4.01078 14.2534 4.06747 14.9786C4.10664 15.5114 4.32841 15.8225 4.9451 15.8102C9.24799 15.7401 10.3766 10.4584 7.71891 7.97274C7.29337 7.57527 6.77485 7.24862 6.15066 7.02671C5.8371 6.91458 5.31984 6.75193 4.87868 6.75193C4.50058 6.75193 4.17706 6.87349 4.09466 7.25671Z" fill="url(#paint0_linear_24_3063)"/>
</g>
<mask id="mask2_24_3063" style="mask-type:luminance" maskUnits="userSpaceOnUse" x="9" y="1" width="5" height="10">
<path d="M9.35459 2.28991C9.2127 2.94996 9.28025 8.6405 9.32965 9.3004C9.36671 9.78275 9.56683 10.0647 10.1267 10.0565C14.0344 9.9904 15.0609 5.19479 12.6476 2.93853C12.2613 2.57817 11.7867 2.28125 11.2246 2.08064C10.9388 1.97759 10.4701 1.82956 10.0692 1.82956C9.72295 1.82956 9.43048 1.94303 9.35459 2.28991Z" fill="white"/>
</mask>
<g mask="url(#mask2_24_3063)">
<path d="M9.35459 2.28991C9.2127 2.94996 9.28025 8.6405 9.32965 9.3004C9.36671 9.78275 9.56683 10.0647 10.1267 10.0565C14.0344 9.9904 15.0609 5.19479 12.6476 2.93853C12.2613 2.57817 11.7867 2.28125 11.2246 2.08064C10.9388 1.97759 10.4701 1.82956 10.0692 1.82956C9.72295 1.82956 9.43048 1.94303 9.35459 2.28991Z" fill="url(#paint1_linear_24_3063)"/>
</g>
<mask id="mask3_24_3063" style="mask-type:luminance" maskUnits="userSpaceOnUse" x="10" y="6" width="6" height="12">
<path d="M10.2339 7.41225C10.053 8.2436 10.1404 15.3925 10.2034 16.2217C10.2517 16.8311 10.5005 17.1822 11.2034 17.1716C16.1144 17.0924 17.4052 11.0649 14.3733 8.22877C13.8883 7.77587 13.2905 7.40224 12.5847 7.15067C12.2241 7.02088 11.6338 6.83587 11.133 6.83587C10.6988 6.83587 10.3283 6.97511 10.2339 7.41225Z" fill="white"/>
</mask>
<g mask="url(#mask3_24_3063)">
<path d="M10.2339 7.41225C10.053 8.2436 10.1404 15.3925 10.2034 16.2217C10.2517 16.8311 10.5005 17.1822 11.2034 17.1716C16.1144 17.0924 17.4052 11.0649 14.3733 8.22877C13.8883 7.77587 13.2905 7.40224 12.5847 7.15067C12.2241 7.02088 11.6338 6.83587 11.133 6.83587C10.6988 6.83587 10.3283 6.97511 10.2339 7.41225Z" fill="url(#paint2_linear_24_3063)"/>
</g>
</g>
<defs>
<linearGradient id="paint0_linear_24_3063" x1="9.17794" y1="11.3213" x2="3.85849" y2="11.2712" gradientUnits="userSpaceOnUse">
<stop stop-color="#F47920"/>
<stop offset="0.1" stop-color="#F47920"/>
<stop offset="0.44066" stop-color="#F47920"/>
<stop offset="1" stop-color="#C9242B"/>
</linearGradient>
<linearGradient id="paint1_linear_24_3063" x1="9.28066" y1="5.9335" x2="14.0459" y2="5.97835" gradientUnits="userSpaceOnUse">
<stop stop-color="#15B1E7"/>
<stop offset="1" stop-color="#0060AF"/>
</linearGradient>
<linearGradient id="paint2_linear_24_3063" x1="9.6223" y1="11.9907" x2="16.6587" y2="12.057" gradientUnits="userSpaceOnUse">
<stop stop-color="#8CC63F"/>
<stop offset="0.378511" stop-color="#8CC63F"/>
<stop offset="1" stop-color="#009559"/>
</linearGradient>
</defs>
</svg>
