<svg width="21" height="21" viewBox="0 0 21 21" fill="none" xmlns="http://www.w3.org/2000/svg">
<mask id="mask0_24_970" style="mask-type:alpha" maskUnits="userSpaceOnUse" x="0" y="0" width="21" height="21">
<circle cx="10.5" cy="10.5" r="10.5" fill="#D9D9D9"/>
</mask>
<g mask="url(#mask0_24_970)">
<rect x="-6" y="-14" width="33" height="35" fill="#004AA4"/>
<path d="M8.43325 6.11233C8.16383 6.23688 7.96096 6.45357 7.86595 6.71918L6.05859 11.7666C5.96283 12.0309 5.98517 12.3175 6.12037 12.5683C6.25534 12.8176 6.48914 13.0052 6.77319 13.0933L12.7014 14.9422C12.9909 15.0304 13.2961 15.0113 13.566 14.885C13.8371 14.7582 14.0384 14.5439 14.1328 14.2777L15.942 9.23115C16.1393 8.68258 15.8165 8.08616 15.2252 7.90298L9.29646 6.05363C9.00821 5.96618 8.70285 5.98563 8.43325 6.11233Z" fill="white"/>
<path d="M11.3312 10.9595C11.0088 11.2944 10.6065 11.5626 10.1427 11.7295L9.87308 11.826V9.48743L10.1384 9.58264C10.6046 9.74797 11.007 10.0173 11.3312 10.3496C11.5611 10.0046 11.7047 9.60562 11.7333 9.17221C11.8066 8.04951 11.0501 7.02188 10.0118 6.66427L9.15619 6.39793C8.76933 6.27874 8.35911 6.47745 8.23045 6.83477L6.4165 11.8852C6.28915 12.244 6.50502 12.634 6.89225 12.7525L11.007 14.0289C11.4278 13.6144 11.6992 13.0656 11.7382 12.4526C11.775 11.9067 11.6219 11.392 11.3312 10.9595ZM8.95061 11.9701H8.54305V9.34849H8.95061V11.9701Z" fill="#0098D9"/>
<path d="M11.093 10.6539C10.8638 10.4032 10.5866 10.1944 10.2651 10.041V11.273C10.5866 11.1184 10.8649 10.9061 11.093 10.6539Z" fill="#E63C2F"/>
<path d="M15.094 8.24046L11.3174 7.06836C11.8249 7.58376 12.1358 8.26803 12.1358 9.01924C12.1376 9.61153 11.9385 10.1804 11.5912 10.6539C11.9393 11.1272 12.1412 11.6954 12.1412 12.2886C12.1426 12.9974 11.869 13.6495 11.4117 14.1538L12.8305 14.5939C13.218 14.7133 13.6274 14.5167 13.7547 14.1572L15.5697 9.1084C15.6978 8.74913 15.4811 8.36004 15.094 8.24046ZM14.0931 11.9613L13.5839 11.9629L12.5349 10.6513L13.5997 9.34098L14.1149 9.33921L13.0463 10.6539L14.0931 11.9613Z" fill="#004B9D"/>
</g>
</svg>
