<svg width="20" height="20" viewBox="0 0 20 20" fill="none" xmlns="http://www.w3.org/2000/svg">
<path d="M10.9511 2.92705C10.6517 2.00574 9.3483 2.00574 9.04894 2.92705L7.97937 6.21885C7.8455 6.63087 7.46154 6.90983 7.02832 6.90983H3.56712C2.59839 6.90983 2.19562 8.14945 2.97933 8.71885L5.7795 10.7533C6.12999 11.0079 6.27665 11.4593 6.14277 11.8713L5.0732 15.1631C4.77385 16.0844 5.82833 16.8506 6.61205 16.2812L9.41222 14.2467C9.7627 13.9921 10.2373 13.9921 10.5878 14.2467L13.388 16.2812C14.1717 16.8506 15.2261 16.0844 14.9268 15.1631L13.8572 11.8713C13.7234 11.4593 13.87 11.0079 14.2205 10.7533L17.0207 8.71885C17.8044 8.14945 17.4016 6.90983 16.4329 6.90983H12.9717C12.5385 6.90983 12.1545 6.63087 12.0206 6.21885L10.9511 2.92705Z" fill="#FFE300"/>
</svg>
