<svg width="21" height="21" viewBox="0 0 21 21" fill="none" xmlns="http://www.w3.org/2000/svg">
<mask id="mask0_24_3071" style="mask-type:alpha" maskUnits="userSpaceOnUse" x="0" y="0" width="21" height="21">
<circle cx="10.5" cy="10.5" r="10.5" fill="#D9D9D9"/>
</mask>
<g mask="url(#mask0_24_3071)">
<circle cx="13" cy="8" r="14" fill="#00438D"/>
<mask id="mask1_24_3071" style="mask-type:alpha" maskUnits="userSpaceOnUse" x="5" y="5" width="11" height="11">
<rect x="5.34912" y="5" width="10.6508" height="11" fill="#D9D9D9"/>
</mask>
<g mask="url(#mask1_24_3071)">
<path d="M12.0601 11.9121H12.9899L15.3013 9.86662H12.06L12.0601 11.9121ZM11.4442 6.04824L9.39355 7.86281V9.25046H11.4442V6.04824Z" fill="#D5B55D"/>
<path d="M7.63605 9.86607L5.3252 11.9105L9.39449 11.9113L9.39481 15.9692L11.4444 14.156V9.86607H7.63605ZM-0.535892 19.3748C-0.738569 19.5534 -0.969952 19.6511 -1.23859 19.6511C-1.50653 19.6511 -1.73887 19.5534 -1.93134 19.3748C-2.13446 19.1817 -2.22997 18.9577 -2.22997 18.6975C-2.22997 18.4378 -2.13446 18.2144 -1.93134 18.0196C-1.73887 17.8411 -1.50659 17.7449 -1.23853 17.7449C-0.969951 17.7449 -0.738569 17.8411 -0.535892 18.0196C-0.343359 18.2144 -0.246389 18.4377 -0.246389 18.6975C-0.246389 18.9577 -0.343359 19.1817 -0.535892 19.3748ZM1.66248 16.8073H-4.14062V17.5295H-2.49242L-2.50722 17.5445C-2.67098 17.6937 -2.80597 17.8716 -2.89497 18.0654C-2.99181 18.2735 -3.03595 18.4892 -3.03595 18.7134C-3.03595 18.9363 -2.99181 19.153 -2.89497 19.3602C-2.80597 19.5534 -2.67104 19.7339 -2.50722 19.8812C-2.34225 20.0308 -2.15616 20.1498 -1.93134 20.2385C-1.71013 20.3227 -1.4753 20.3656 -1.23853 20.3652C-1.00025 20.3652 -0.769636 20.3202 -0.544822 20.2385C-0.328303 20.1498 -0.134303 20.0308 0.0295229 19.8812C0.194114 19.7339 0.321066 19.5534 0.417907 19.3602C0.507029 19.153 0.559532 18.9363 0.559532 18.7134C0.559532 18.4891 0.507029 18.2735 0.417907 18.0654C0.321066 17.8716 0.194178 17.6937 0.0295229 17.5445L0.0148492 17.5295H1.66254L1.66248 16.8073ZM0.0450258 15.3784C-0.531362 15.0809 -0.813527 14.7613 -0.813527 14.4188V14.4119H0.992316V13.7038H-3.46918V14.4119H-1.66398V14.4188C-1.66398 14.7613 -1.95393 15.0809 -2.52253 15.3784C-2.84897 15.5572 -3.2836 15.6847 -3.82012 15.7729L-3.48303 16.3833C-2.83532 16.2717 -2.26135 16.0639 -1.76835 15.7664C-1.55986 15.6393 -1.38066 15.5058 -1.23859 15.3642C-1.10443 15.5058 -0.925359 15.6393 -0.709222 15.7664C-0.217809 16.0639 0.349902 16.2717 1.00667 16.3833L1.34242 15.7729C0.80527 15.6847 0.373442 15.5572 0.0450258 15.3784Z" fill="white"/>
</g>
</g>
</svg>
