<svg width="20" height="22" viewBox="0 0 20 22" fill="none" xmlns="http://www.w3.org/2000/svg">
<path d="M10.9555 3.09555C10.6653 2.15547 9.33466 2.15547 9.04449 3.09555L7.97249 6.56845C7.84311 6.98761 7.45565 7.27351 7.01698 7.27351H3.44312C2.48686 7.27351 2.07605 8.48692 2.83563 9.06783L5.81371 11.3454C6.14636 11.5998 6.28525 12.0345 6.16174 12.4347L5.04527 16.0517C4.75808 16.9821 5.83481 17.7325 6.60827 17.1409L9.39251 15.0116C9.75108 14.7374 10.2489 14.7374 10.6075 15.0116L13.3917 17.1409C14.1652 17.7325 15.2419 16.9821 14.9547 16.0517L13.8383 12.4347C13.7147 12.0345 13.8536 11.5998 14.1863 11.3454L17.1644 9.06784C17.924 8.48692 17.5131 7.27351 16.5569 7.27351H12.983C12.5443 7.27351 12.1569 6.98761 12.0275 6.56845L10.9555 3.09555Z" fill="#F0F0F0"/>
</svg>
