<svg width="21" height="21" viewBox="0 0 21 21" fill="none" xmlns="http://www.w3.org/2000/svg">
<mask id="mask0_24_1251" style="mask-type:alpha" maskUnits="userSpaceOnUse" x="0" y="0" width="21" height="21">
<circle cx="10.5" cy="10.5" r="10.5" fill="#D9D9D9"/>
</mask>
<g mask="url(#mask0_24_1251)">
<circle cx="11" cy="10" r="11" fill="#0061AD"/>
<mask id="mask1_24_1251" style="mask-type:alpha" maskUnits="userSpaceOnUse" x="2" y="4" width="14" height="14">
<circle cx="9" cy="11" r="7" fill="#D9D9D9"/>
</mask>
<g mask="url(#mask1_24_1251)">
<mask id="mask2_24_1251" style="mask-type:luminance" maskUnits="userSpaceOnUse" x="-4" y="3" width="72" height="16">
<path d="M-4 2.99928H67.3576V18.9727H-4V2.99928Z" fill="white"/>
</mask>
<g mask="url(#mask2_24_1251)">
<path d="M10.3971 11.1938L11.9409 12.0696V12.072L11.9272 12.0645C11.375 12.4874 10.8482 12.6274 10.3925 12.6275C9.93679 12.6274 9.40995 12.4874 8.85786 12.0645L8.84414 12.072V12.0696L10.3971 11.1938ZM9.6126 8.12435H9.62117L9.6126 9.92136L8.06414 10.7624L8.06195 10.76C7.74633 8.61687 9.6126 8.12435 9.6126 8.12435ZM12.7231 10.76L12.7208 10.7624L11.1725 9.92136L11.1638 8.12435H11.1725C11.1725 8.12435 13.0388 8.61687 12.7231 10.76ZM14.1895 11.7268C13.7748 12.7268 13.0799 13.0095 13.0799 13.0095C15.1246 10.9996 13.8758 8.68342 13.8758 8.68342C13.5739 8.16429 13.9582 7.938 13.9582 7.938C13.0799 8.15098 13.3544 8.85647 13.3544 8.85647C13.7956 9.876 13.7067 10.7043 13.5568 11.2166L13.2674 11.0593L13.272 11.0528C13.272 11.0528 13.9577 8.432 11.1611 7.51279L11.1588 7.01953H10.5687V10.2675L13.3132 11.7849C13.2648 11.8801 13.2119 11.9732 13.1549 12.0638L10.3983 10.5148L7.63007 12.0638C7.57302 11.9732 7.52023 11.8802 7.47188 11.7849L10.2164 10.2675V7.01953H9.62633L9.62402 7.51279C6.82724 8.432 7.51304 11.0528 7.51304 11.0528L7.51766 11.0593L7.22816 11.2166C7.07831 10.7043 6.98939 9.876 7.43071 8.85647C7.43071 8.85647 7.70516 8.15098 6.82691 7.938C6.82691 7.938 7.21115 8.16429 6.90925 8.68342C6.90925 8.68342 5.66049 10.9996 7.70516 13.0095C7.70516 13.0095 7.01014 12.7268 6.59561 11.7268C6.59561 11.7268 6.36035 11.2392 5.70166 11.3457C5.70166 11.3457 5.9502 11.4549 6.09621 11.8968C6.09621 11.8968 6.68969 13.7283 8.98136 14.0079V15.0195H10.1066V13.5287C10.1066 13.5287 8.91286 13.5194 8.00157 12.5466L8.28436 12.3865C8.33695 12.4348 9.20356 13.2127 10.3857 13.2331V13.2335L10.3925 13.2333L10.3994 13.2335V13.2331C11.5814 13.2127 12.448 12.4348 12.5006 12.3865L12.7834 12.5466C11.8721 13.5194 10.6785 13.5287 10.6785 13.5287V15.0195H11.8037V14.0079C14.0954 13.7283 14.6888 11.8968 14.6888 11.8968C14.8348 11.4549 15.0834 11.3457 15.0834 11.3457C14.4247 11.2392 14.1895 11.7268 14.1895 11.7268Z" fill="white"/>
</g>
</g>
</g>
</svg>
