<svg width="21" height="21" viewBox="0 0 21 21" fill="none" xmlns="http://www.w3.org/2000/svg">
<mask id="mask0_24_3088" style="mask-type:alpha" maskUnits="userSpaceOnUse" x="0" y="0" width="21" height="21">
<circle cx="10.5" cy="10.5" r="10.5" fill="#D9D9D9"/>
</mask>
<g mask="url(#mask0_24_3088)">
<circle cx="10" cy="11" r="11" fill="#FFE000"/>
<path d="M14.5999 15H4.39983C2.52208 15 1 13.4331 1 11.4999C1 9.56688 2.52208 8 4.39983 8H14.5999C16.4776 8 18 9.56688 18 11.4999C18 13.4331 16.4776 15 14.5999 15Z" fill="#FFE000"/>
<path d="M5.39416 9.66211C4.36914 9.66211 3.53857 10.3378 3.53857 11.1713C3.53857 11.6713 3.83856 12.114 4.29917 12.3887L4.08081 13.2286C4.05983 13.3092 4.14699 13.3734 4.21435 13.3268L5.16211 12.6681C5.23818 12.6758 5.31544 12.6804 5.39416 12.6804C6.41918 12.6804 7.24974 12.0047 7.24974 11.1713C7.24974 10.3378 6.41918 9.66211 5.39416 9.66211ZM8.99924 10.4534V11.936C9.03424 11.9406 9.12256 11.9496 9.20623 11.9496C9.66422 11.9496 9.84032 11.6187 9.84032 11.0973C9.84032 10.6392 9.72167 10.3626 9.35608 10.3626C9.23715 10.3626 9.10508 10.399 8.99924 10.4534ZM8.99924 12.3984V13.3278H8.35643V9.90023H8.80975L8.88906 10.1179C9.02577 9.97739 9.23248 9.82768 9.56744 9.82768C10.1971 9.82768 10.4968 10.3129 10.4922 11.0973C10.4922 11.9178 10.0298 12.4438 9.36919 12.4438C9.24151 12.4438 9.14473 12.4345 8.99924 12.3984ZM12.2205 11.7411V11.2876H11.9255C11.5949 11.2876 11.4275 11.4102 11.4275 11.655C11.4275 11.8408 11.5202 11.9315 11.7094 11.9315C11.8858 11.9315 12.1106 11.8408 12.2205 11.7411ZM11.8549 10.866H12.2205V10.7845C12.2205 10.5122 12.0709 10.3853 11.8109 10.3853C11.6126 10.3853 11.3573 10.4443 11.1503 10.5486L10.9739 10.1041C11.203 9.94115 11.5555 9.82787 11.868 9.82787C12.4846 9.82787 12.8196 10.1631 12.8196 10.8024V12.3758H12.366L12.2998 12.1671C12.04 12.3621 11.8021 12.4437 11.5864 12.4437C11.115 12.4437 10.8509 12.1535 10.8509 11.6639C10.8509 11.1425 11.203 10.866 11.8549 10.866ZM14.7081 12.1218C14.4836 12.7386 14.2148 13.1874 13.823 13.4365L13.4265 13.0602C13.6557 12.8562 13.8183 12.6568 13.9594 12.3895L13.105 9.99099L13.7434 9.81413L14.2897 11.7591L14.8314 9.80517L15.4614 9.98635L14.7081 12.1218Z" fill="black"/>
</g>
</svg>
