<svg width="21" height="21" viewBox="0 0 21 21" fill="none" xmlns="http://www.w3.org/2000/svg">
<mask id="mask0_24_1254" style="mask-type:alpha" maskUnits="userSpaceOnUse" x="0" y="0" width="21" height="21">
<circle cx="10.5" cy="10.5" r="10.5" fill="#D9D9D9"/>
</mask>
<g mask="url(#mask0_24_1254)">
<circle cx="10" cy="10" r="12" fill="#0046FF"/>
<path d="M15.9933 10.2551C15.9972 10.3356 15.9995 10.4156 16 10.4953V10.4997C16 13.0442 14.2726 15.1853 11.9259 15.8134C11.5408 15.9158 11.1459 15.9764 10.7478 15.9942C10.628 15.9997 10.5086 16.0012 10.39 15.9991C7.6067 15.9445 5.33024 13.8223 5.03294 11.1047C5.02027 10.987 5.0115 10.869 5.00665 10.7507C5.0028 10.6709 5.00058 10.5911 5 10.5112V10.4997C5 7.46273 7.46212 5 10.4999 5C13.0906 5 15.2624 6.79085 15.846 9.20139C15.9289 9.54706 15.9783 9.89995 15.9933 10.2551ZM13.4029 7.73966C13.0811 7.65072 12.8431 7.57438 12.773 7.42654C12.7397 7.35658 12.76 7.28607 12.8059 7.25318C12.8555 7.21694 12.9224 7.22904 13.0004 7.2671C13.1155 7.32281 13.2565 7.4057 13.3648 7.41906C13.6802 7.45712 13.6225 6.97472 13.0559 6.69471C12.7225 6.52916 12.3964 6.46124 11.9545 6.47768C11.7909 6.48439 11.6365 6.47845 11.4997 6.45684C11.2932 6.42499 11.04 6.33732 10.8695 6.30179C10.7391 6.27429 10.6647 6.27792 10.6337 6.32137C10.6048 6.36251 10.6141 6.42318 10.6936 6.52372C10.853 6.7248 11.1043 6.94848 10.9757 7.47175C10.6575 8.76898 11.0933 9.36265 11.5372 9.46011C11.786 9.51533 12.0152 9.45703 12.1551 9.31177C12.288 9.17268 12.3455 8.93733 12.2173 8.73807C12.0213 8.43287 11.9521 8.16756 12.1273 8.05717C12.2873 7.95614 12.5147 8.04925 12.6876 8.43596C12.9641 9.05564 13.324 9.21998 13.6837 8.77921C13.9785 8.41819 13.967 7.89547 13.4029 7.73966ZM12.4015 11.1256C10.9098 10.2318 10.1701 9.87822 9.56644 9.44724C8.56614 8.734 8.40786 8.20248 8.37728 7.83272C8.32273 7.1709 8.82357 6.57514 9.33342 6.29431C9.37269 6.27044 9.44017 6.21544 9.41086 6.14009C9.38121 6.06397 9.28992 6.07866 9.25566 6.08608C8.11545 6.32808 7.00731 7.33216 7.17944 8.67251C7.24813 9.20348 7.5858 10.1001 9.33463 11.1299C9.93116 11.4809 10.4461 11.747 11.2546 12.2098C12.3493 12.8357 12.8532 13.642 12.1752 14.5217C12.1237 14.5831 12.0795 14.6469 12.098 14.7024C12.1188 14.7667 12.2034 14.7778 12.2824 14.7422C12.8028 14.5026 13.2326 14.1429 13.4374 13.8094C13.7977 13.2222 13.9773 12.0705 12.4015 11.1256ZM10.6568 14.6945C10.5246 14.6564 10.324 14.5941 10.1567 14.5211C9.94585 14.4291 9.75523 14.328 9.67115 14.2447C9.6161 14.1894 9.60757 14.1269 9.65157 14.0627C9.90366 13.7004 9.97466 13.5569 10.0451 13.3864C10.1949 13.0255 10.0469 12.9905 9.81463 13.0573C9.56204 13.1296 9.36224 13.2033 9.20738 13.2614C8.99026 13.3425 8.85596 13.3921 8.77699 13.3536C8.69471 13.3137 8.67954 13.1707 8.64995 12.9336C8.62911 12.765 8.59363 12.5726 8.54837 12.3849C8.45494 12.0087 8.29397 12.081 8.16099 12.2348C7.99535 12.4359 7.90405 12.6848 7.83531 12.8154C7.79852 12.8853 7.75634 12.9084 7.70497 12.8973C7.5902 12.8729 7.43869 12.6953 7.27326 12.4842C7.03173 12.1754 6.92405 11.9381 6.79822 11.9234C6.531 11.8923 6.64979 12.5243 6.90056 13.0453C7.14518 13.5551 7.52465 14.0571 8.16016 14.4587C8.88533 14.9176 9.9569 15.0842 10.6151 14.9917C10.823 14.9624 10.8641 14.7541 10.6568 14.6945Z" fill="white"/>
</g>
</svg>
