<svg width="44" height="44" viewBox="0 0 44 44" fill="none" xmlns="http://www.w3.org/2000/svg">
<path d="M29.0845 25.1155V19.6607C29.0845 15.9814 26.1782 13 22.5915 13C19.0068 13 16.1005 15.9814 16.1005 19.6588V25.0542C15.4683 25.2143 15 25.7975 15 26.4955V26.5132C15 27.3337 15.6495 28 16.4493 28H28.5507C29.3505 28 30 27.3337 30 26.5132V26.4955C30 25.8687 29.6203 25.3329 29.0845 25.1135V25.1155Z" fill="#BBBBBB"/>
<path d="M26 30C25.8088 31.684 24.4523 33 22.82 33H22.178C20.5457 33 19.1892 31.684 19 30H26Z" fill="#BBBBBB"/>
<circle cx="37.5" cy="12.5" r="2.5" fill="#FC5C4F"/>
</svg>
