<svg width="21" height="21" viewBox="0 0 21 21" fill="none" xmlns="http://www.w3.org/2000/svg">
<mask id="mask0_24_3065" style="mask-type:alpha" maskUnits="userSpaceOnUse" x="0" y="0" width="21" height="21">
<circle cx="10.5" cy="10.5" r="10.5" fill="#D9D9D9"/>
</mask>
<g mask="url(#mask0_24_3065)">
<circle cx="11" cy="10" r="13" fill="#004179"/>
<mask id="mask1_24_3065" style="mask-type:luminance" maskUnits="userSpaceOnUse" x="6" y="7" width="9" height="7">
<path d="M10.5096 10.6505C10.5096 10.6505 12.1226 7.29246 12.251 7H14.682C14.682 7.44565 14.3582 12.9188 14.3621 13.3714H12.613L12.9023 8.90967C12.9023 8.90967 10.9349 13.0859 10.8046 13.3714H9.42146L8.80077 8.90967C8.75671 9.11335 8.09962 12.0919 7.74138 13.3714H6C6.18199 12.8039 7.51341 7.32727 7.61877 7H9.95977L10.5096 10.6505Z" fill="white"/>
</mask>
<g mask="url(#mask1_24_3065)">
<path d="M10.5096 10.6505C10.5096 10.6505 12.1226 7.29246 12.251 7H14.682C14.682 7.44565 14.3582 12.9188 14.3621 13.3714H12.613L12.9023 8.90967C12.9023 8.90967 10.9349 13.0859 10.8046 13.3714H9.42146L8.80077 8.90967C8.75671 9.11335 8.09962 12.0919 7.74138 13.3714H6C6.18199 12.8039 7.51341 7.32727 7.61877 7H9.95977L10.5096 10.6505Z" fill="white"/>
<path d="M15.8354 7.27651L4.83545 10.4622L5.25882 4.37109L15.8354 7.27651Z" fill="#F08300"/>
</g>
</g>
</svg>
