<svg width="21" height="21" viewBox="0 0 21 21" fill="none" xmlns="http://www.w3.org/2000/svg">
<mask id="mask0_24_1256" style="mask-type:alpha" maskUnits="userSpaceOnUse" x="0" y="0" width="21" height="21">
<circle cx="10.5" cy="10.5" r="10.5" fill="#D9D9D9"/>
</mask>
<g mask="url(#mask0_24_1256)">
<circle cx="11" cy="10" r="13" fill="#D2000B"/>
<path fill-rule="evenodd" clip-rule="evenodd" d="M10.6423 11.8434V12.382H12.3878V10.7689H11.3142V10.2311H12.3878V8.61573H10.6423V9.15356H11.8497V9.69251H10.7738V11.3071H11.8497V11.8434H10.6423ZM7.5404 10.5011C7.5404 8.86812 8.86567 7.54045 10.4992 7.54045C12.1336 7.54045 13.4581 8.86812 13.4581 10.5011C13.4578 11.2857 13.1459 12.0381 12.5911 12.5927C12.0362 13.1474 11.2838 13.4589 10.4992 13.4588C8.86567 13.4588 7.5404 12.1338 7.5404 10.5011ZM7 10.5011C6.99975 10.0414 7.09009 9.58615 7.26583 9.16136C7.44158 8.73657 7.6993 8.35058 8.02427 8.02544C8.34923 7.7003 8.73507 7.44238 9.15974 7.26644C9.58441 7.09049 10.0396 6.99995 10.4992 7C10.959 6.99985 11.4143 7.09031 11.8391 7.26621C12.2639 7.4421 12.6499 7.69999 12.975 8.02513C13.3001 8.35027 13.5579 8.73629 13.7338 9.16113C13.9097 9.58597 14.0001 10.0413 14 10.5011C14 12.4346 12.4336 14 10.4992 14C10.0397 14.0002 9.58467 13.9098 9.16008 13.7341C8.7355 13.5583 8.3497 13.3006 8.02473 12.9757C7.69977 12.6508 7.44201 12.265 7.26618 11.8404C7.09035 11.4158 6.9999 10.9607 7 10.5011ZM10.3716 9.15356V8.61423H8.62532V10.2281H9.69485V10.767H8.62532V12.3813H10.3716V11.8434H9.16234V11.3064H10.2383V9.69063H9.16234V9.15356H10.3716Z" fill="white"/>
</g>
</svg>
