<svg width="55" height="26" viewBox="0 0 55 26" fill="none" xmlns="http://www.w3.org/2000/svg">
<rect width="55" height="26" rx="13" fill="#32353F"/>
<path d="M19.4648 7.44922V18.043H18.2109V12.6875H17.0391V17.5039H15.8203V7.64844H17.0391V11.6211H18.2109V7.44922H19.4648ZM10.8281 15.4062V8.66797H12.1406V14.2578C13.0547 14.2402 14.0508 14.1582 15.1641 13.9414L15.293 15.0781C13.8633 15.3301 12.6504 15.4062 11.5312 15.4062H10.8281ZM32.7305 7.44922V18.043H31.4883V7.44922H32.7305ZM23.4844 14.8789C25.6758 13.584 26.6836 11.9258 26.8828 9.79297H24.0469V8.73828H28.1719C28.1719 9.27148 28.1367 9.79297 28.0605 10.2969H29.2969V7.70703H30.5391V17.5391H29.2969V14H27.6445V12.9336H29.2969V11.3633H27.8379C27.334 13.1211 26.2324 14.6328 24.2461 15.8047L23.4844 14.8789ZM40.0547 8.35156V9.41797H37.8398C37.8809 10.5898 38.7422 11.7031 40.3477 12.1719L39.7266 13.1914C38.5195 12.834 37.6582 12.0957 37.1895 11.1523C36.7207 12.1895 35.8359 12.9922 34.5938 13.3789L33.9258 12.3594C35.5723 11.8672 36.4629 10.6953 36.5156 9.41797H34.2891V8.35156H40.0547ZM33.832 14.8906C34.6348 14.8906 35.5605 14.8906 36.5273 14.8672V12.9336H37.8281V14.8203C38.6953 14.7793 39.5684 14.709 40.3828 14.5977L40.4766 15.5352C38.2324 15.957 35.8125 15.9512 34.0078 15.957L33.832 14.8906ZM40.9922 18.043V7.44922H42.293V11.7031H43.8281V12.793H42.293V18.043H40.9922Z" fill="#AAAAAA"/>
</svg>
