<svg width="44" height="44" viewBox="0 0 44 44" fill="none" xmlns="http://www.w3.org/2000/svg">
<path d="M17.5999 15.4004H26.3999C27.1333 15.4004 27.7333 16.0004 27.7333 16.7337V18.2004C27.7333 18.7337 27.3999 19.4004 27.0666 19.7337L24.1999 22.2671C23.7999 22.6004 23.5333 23.2671 23.5333 23.8004V26.6671C23.5333 27.0671 23.2666 27.6004 22.9333 27.8004L21.9999 28.4004C21.1333 28.9337 19.9333 28.3337 19.9333 27.2671V23.7337C19.9333 23.2671 19.6666 22.6671 19.3999 22.3337L16.8666 19.6671C16.5333 19.3337 16.2666 18.7337 16.2666 18.3337V16.8004C16.2666 16.0004 16.8666 15.4004 17.5999 15.4004Z" stroke="#888888" stroke-width="2" stroke-miterlimit="10" stroke-linecap="round" stroke-linejoin="round"/>
<path d="M21.2867 15.4004L18 20.6671" stroke="#888888" stroke-width="2" stroke-miterlimit="10" stroke-linecap="round" stroke-linejoin="round"/>
</svg>
