<svg width="21" height="21" viewBox="0 0 21 21" fill="none" xmlns="http://www.w3.org/2000/svg">
<mask id="mask0_24_3086" style="mask-type:alpha" maskUnits="userSpaceOnUse" x="0" y="0" width="21" height="21">
<circle cx="10.5" cy="10.5" r="10.5" fill="#D9D9D9"/>
</mask>
<g mask="url(#mask0_24_3086)">
</g>
<mask id="mask1_24_3086" style="mask-type:alpha" maskUnits="userSpaceOnUse" x="0" y="0" width="21" height="21">
<circle cx="10.5" cy="10.5" r="10.5" fill="#D9D9D9"/>
</mask>
<g mask="url(#mask1_24_3086)">
<path d="M10.4996 21.9992C16.8507 21.9992 21.9992 16.8507 21.9992 10.4996C21.9992 4.14855 16.8507 -1 10.4996 -1C4.14855 -1 -1 4.14855 -1 10.4996C-1 16.8507 4.14855 21.9992 10.4996 21.9992Z" fill="#D7000F"/>
<path d="M15.4044 9.84348H15.6836C15.7018 9.84348 15.7171 9.82979 15.7171 9.81229V9.31634C15.7171 9.29885 15.7018 9.28516 15.6836 9.28516H15.2911C14.837 9.28516 14.5966 9.42131 14.4589 9.71189L13.6055 11.6805C13.5537 11.7976 13.4792 11.8539 13.3316 11.8539V9.31634C13.3316 9.29885 13.3172 9.28516 13.2989 9.28516H12.6714C12.6531 9.28516 12.6387 9.29885 12.6387 9.31634V12.3567C12.6387 12.3871 12.6645 12.4115 12.6972 12.4115H13.4009C13.855 12.4115 14.0619 12.2753 14.1995 11.9847L15.0423 10.0413C15.11 9.90357 15.2074 9.84348 15.4052 9.84348H15.4044Z" fill="white"/>
<path d="M7.73757 10.8503C7.98935 10.7521 8.19777 10.5308 8.19777 10.1641C8.19777 9.618 7.69954 9.28711 7.10014 9.28711H5.24566C5.2274 9.28711 5.21219 9.3008 5.21219 9.3183V9.81425C5.21219 9.83174 5.2274 9.84543 5.24566 9.84543H6.97159C7.24999 9.84543 7.43863 10.0052 7.43863 10.2029C7.43863 10.4007 7.24999 10.5605 6.97159 10.5605H5.94622V10.1923C5.94622 10.1756 5.93101 10.1611 5.91275 10.1611H5.24489C5.22664 10.1611 5.21143 10.1748 5.21143 10.1923V12.383C5.21143 12.3997 5.22664 12.4142 5.24489 12.4142H7.07275C7.75582 12.4142 8.24493 12.1145 8.24493 11.5029C8.24493 11.2024 8.05704 10.9537 7.73681 10.851L7.73757 10.8503ZM7.00734 11.8688H5.94698V11.1355H7.00734C7.29334 11.1355 7.48655 11.2998 7.48655 11.5021C7.48655 11.7045 7.29334 11.8688 7.00734 11.8688Z" fill="white"/>
<path d="M16.054 12.3772L14.9784 11.0826C14.9754 11.0788 14.9708 11.0795 14.9685 11.0833L14.6787 11.7497C14.6772 11.7542 14.6772 11.758 14.6803 11.7626L15.1503 12.3552C15.1838 12.397 15.2211 12.4122 15.2774 12.4122H16.035C16.057 12.4122 16.0662 12.3924 16.0532 12.3765L16.054 12.3772Z" fill="white"/>
<path d="M9.42322 10.1602H8.79492C8.77666 10.1602 8.76221 10.1738 8.76221 10.1913V12.382C8.76221 12.3988 8.77666 12.4132 8.79492 12.4132H9.42322C9.44147 12.4132 9.45669 12.3995 9.45669 12.382V10.1913C9.45669 10.1746 9.44147 10.1602 9.42322 10.1602Z" fill="white"/>
<path d="M12.0064 9.28711H11.3789C11.3606 9.28711 11.3462 9.3008 11.3462 9.3183V11.8559C11.1986 11.8559 11.124 11.8003 11.0723 11.6824L10.2189 9.71384C10.0812 9.42327 9.84006 9.28711 9.38671 9.28711H8.79492C8.77666 9.28711 8.76221 9.3008 8.76221 9.3183V9.81425C8.76221 9.83174 8.77666 9.84543 8.79492 9.84543H9.27337C9.47114 9.84543 9.5685 9.90552 9.6362 10.0432L10.479 11.9867C10.6167 12.2773 10.8236 12.4134 11.2777 12.4134H11.9813C12.0133 12.4134 12.0399 12.3891 12.0399 12.3586V9.3183C12.0399 9.3008 12.0254 9.28711 12.0072 9.28711H12.0064Z" fill="white"/>
</g>
</svg>
