<svg width="44" height="44" viewBox="0 0 44 44" fill="none" xmlns="http://www.w3.org/2000/svg">
<g clip-path="url(#clip0_114_2836)">
<path d="M22 21C24.2091 21 26 19.2091 26 17C26 14.7909 24.2091 13 22 13C19.7909 13 18 14.7909 18 17C18 19.2091 19.7909 21 22 21Z" fill="#222222"/>
<path d="M28.037 31L15.939 30.9104C14.6797 30.902 13.6553 29.6517 14.1097 28.4973L14.7009 26.2322C15.5597 24.0546 18.0205 22.9835 20.3965 23.0002L23.6815 23.0252C26.0556 23.0419 28.5049 24.1505 29.3348 26.3405L29.897 28.614C30.338 29.7747 29.2963 31.0083 28.037 31Z" fill="#222222"/>
</g>
<defs>
<clipPath id="clip0_114_2836">
<rect width="16" height="18" fill="white" transform="translate(14 13)"/>
</clipPath>
</defs>
</svg>
