<svg width="21" height="21" viewBox="0 0 21 21" fill="none" xmlns="http://www.w3.org/2000/svg">
<mask id="mask0_24_3074" style="mask-type:alpha" maskUnits="userSpaceOnUse" x="0" y="0" width="21" height="21">
<circle cx="10.5" cy="10.5" r="10.5" fill="#D9D9D9"/>
</mask>
<g mask="url(#mask0_24_3074)">
<circle cx="11" cy="11" r="12" fill="#00688F"/>
<path d="M12.9882 11.2648C12.9959 11.1776 13 11.0893 13 11C13 9.34316 11.6569 8 10 8C8.34316 7.99997 7 9.34313 7 11C7 12.6569 8.34316 14 9.99999 14C10.9805 14 11.851 13.5296 12.3985 12.8022L11.6738 11.9989C11.3433 12.5876 10.7302 12.9827 10.0085 12.9827C8.92225 12.9827 8.04166 12.0881 8.04166 10.9845C8.04166 9.88097 8.92225 8.98632 10.0085 8.98632C10.8747 8.98632 11.5845 9.55544 11.8368 10.3455H9.68969C9.68969 10.3455 9.17571 10.3455 9.17571 10.9073C9.17571 11.1213 9.211 11.2648 9.211 11.2648H12.9882Z" fill="white"/>
<path d="M14.5 8C13.6716 8 13 8.67157 13 9.50001C13 10.3284 13.6716 11 14.5 11C15.3284 11 16 10.3284 16 9.50001C16 8.67157 15.3284 8 14.5 8ZM14.5 10.2317C14.0959 10.2317 13.7683 9.90411 13.7683 9.50001C13.7683 9.09589 14.0959 8.76829 14.5 8.76829C14.9041 8.76829 15.2317 9.09589 15.2317 9.50001C15.2317 9.90411 14.9041 10.2317 14.5 10.2317Z" fill="#F29600"/>
</g>
</svg>
