<svg width="21" height="21" viewBox="0 0 21 21" fill="none" xmlns="http://www.w3.org/2000/svg">
<mask id="mask0_24_1247" style="mask-type:alpha" maskUnits="userSpaceOnUse" x="0" y="0" width="21" height="21">
<circle cx="10.5" cy="10.5" r="10.5" fill="#D9D9D9"/>
</mask>
<g mask="url(#mask0_24_1247)">
<path d="M21 0H0V21H21V0Z" fill="#002461" stroke="#1A151B" stroke-width="0.12" stroke-miterlimit="10"/>
<path d="M12.3963 12.711C12.3963 13.9907 11.9868 14.5006 11.2348 14.7133C11.2131 14.7192 11.2131 14.7408 11.2367 14.7467C11.406 14.7901 11.6049 14.8117 11.8274 14.8117C12.9574 14.8117 13.7962 14.038 13.7962 12.711V8.2832H12.3963V12.711Z" fill="white"/>
<path d="M9.6716 10.3417C8.42338 9.55612 8.31707 9.40256 8.31707 9.12889C8.31707 8.87098 8.60057 8.57173 9.44519 8.32169C9.47472 8.31382 9.47866 8.28625 9.44125 8.28428C8.1576 8.21538 7.25195 8.87098 7.25195 9.60928C7.25195 10.1448 7.44883 10.4795 8.73052 11.2867C9.9866 12.0781 10.1244 12.2297 10.1244 12.5192C10.1244 12.8735 9.71688 13.2259 8.96677 13.4504C8.93527 13.4602 8.9333 13.4878 8.97071 13.4898C10.3685 13.5646 11.2328 12.8637 11.2328 12.1274C11.2328 11.6234 11.036 11.202 9.6716 10.3436V10.3417Z" fill="white"/>
<path d="M8.28561 12.2913C8.04542 12.0236 7.69301 11.8287 7.21459 11.7617C7.20475 11.7617 7.19687 11.7617 7.19293 11.7676C7.18703 11.7735 7.18506 11.7794 7.18506 11.7893C7.20278 12.2716 7.35831 12.6418 7.60047 12.9095C7.84067 13.1773 8.19308 13.3722 8.6715 13.4391C8.68134 13.4391 8.68921 13.4391 8.69315 13.4332C8.69906 13.4293 8.70103 13.4214 8.70103 13.4116C8.68331 12.9292 8.52777 12.5591 8.28561 12.2913Z" fill="#71BF44"/>
<path d="M10.7861 8.85382C10.5459 8.58607 10.1935 8.39116 9.71508 8.32422C9.70524 8.32422 9.69736 8.32422 9.69342 8.33012C9.68752 8.33406 9.68555 8.34194 9.68555 8.35178C9.70327 8.83414 9.8588 9.20427 10.101 9.47202C10.3412 9.73978 10.6936 9.93469 11.172 10.0016C11.1818 10.0016 11.1897 10.0016 11.1936 9.99572C11.1995 9.98982 11.2015 9.98391 11.2015 9.97407C11.1838 9.49171 11.0283 9.12158 10.7861 8.85382Z" fill="#71BF44"/>
<path d="M13.2747 6.22014C12.9715 5.88348 12.5305 5.63935 11.93 5.55469C11.9182 5.55469 11.9083 5.55469 11.9024 5.56256C11.8965 5.56847 11.8926 5.57831 11.8926 5.59013C11.9142 6.19651 12.1111 6.66115 12.4143 6.99781C12.7175 7.33447 13.1585 7.5786 13.761 7.66326C13.7728 7.66326 13.7826 7.66326 13.7885 7.65539C13.7944 7.64948 13.7984 7.63964 13.7984 7.62782C13.7767 7.02144 13.5798 6.5568 13.2766 6.22014H13.2747Z" fill="#71BF44"/>
</g>
</svg>
