<svg width="21" height="21" viewBox="0 0 21 21" fill="none" xmlns="http://www.w3.org/2000/svg">
<mask id="mask0_24_3079" style="mask-type:alpha" maskUnits="userSpaceOnUse" x="0" y="0" width="21" height="21">
<circle cx="10.5" cy="10.5" r="10.5" fill="#D9D9D9"/>
</mask>
<g mask="url(#mask0_24_3079)">
<circle cx="10" cy="10" r="12" fill="#044DA1"/>
<path d="M7.5625 12H6.44034V8.36364H7.61222C7.96496 8.36364 8.26681 8.43643 8.51776 8.58203C8.7687 8.72644 8.96106 8.93419 9.09482 9.20526C9.22857 9.47514 9.29545 9.7983 9.29545 10.1747C9.29545 10.5535 9.22798 10.8796 9.09304 11.1531C8.9581 11.4253 8.7616 11.6348 8.50355 11.7816C8.2455 11.9272 7.93182 12 7.5625 12ZM6.88068 11.6094H7.53409C7.83475 11.6094 8.08393 11.5514 8.28161 11.4354C8.47929 11.3194 8.62666 11.1542 8.72372 10.94C8.82079 10.7257 8.86932 10.4706 8.86932 10.1747C8.86932 9.88116 8.82138 9.62843 8.7255 9.41655C8.62962 9.20348 8.48639 9.04013 8.29581 8.92649C8.10523 8.81167 7.8679 8.75426 7.58381 8.75426H6.88068V11.6094ZM12.1199 9.5C12.0808 9.38045 12.0293 9.27332 11.9654 9.17862C11.9027 9.08274 11.8275 9.00107 11.7399 8.93359C11.6535 8.86612 11.5553 8.81463 11.4452 8.77912C11.3351 8.74361 11.2143 8.72585 11.083 8.72585C10.8675 8.72585 10.6716 8.78149 10.4952 8.89276C10.3189 9.00402 10.1786 9.16797 10.0744 9.38459C9.97027 9.60121 9.91818 9.86695 9.91818 10.1818C9.91818 10.4967 9.97086 10.7624 10.0762 10.979C10.1816 11.1957 10.3242 11.3596 10.5041 11.4709C10.684 11.5821 10.8865 11.6378 11.1114 11.6378C11.3197 11.6378 11.5032 11.5934 11.6618 11.5046C11.8216 11.4147 11.9459 11.288 12.0347 11.1246C12.1246 10.9601 12.1696 10.7666 12.1696 10.544L12.3045 10.5724H11.2108V10.1818H12.5957V10.5724C12.5957 10.8719 12.5318 11.1323 12.404 11.3537C12.2773 11.575 12.1021 11.7467 11.8784 11.8686C11.6559 11.9893 11.4002 12.0497 11.1114 12.0497C10.7894 12.0497 10.5065 11.974 10.2626 11.8224C10.02 11.6709 9.83059 11.4555 9.69446 11.1761C9.55952 10.8968 9.49205 10.5653 9.49205 10.1818C9.49205 9.89418 9.53052 9.63553 9.60746 9.40589C9.68558 9.17507 9.79567 8.97857 9.93771 8.81641C10.0798 8.65424 10.2478 8.52995 10.442 8.44354C10.6361 8.35713 10.8498 8.31392 11.083 8.31392C11.2747 8.31392 11.4535 8.34292 11.6192 8.40092C11.7861 8.45774 11.9346 8.53883 12.0648 8.64418C12.1962 8.74834 12.3057 8.87322 12.3933 9.01882C12.4809 9.16323 12.5413 9.32363 12.5744 9.5H12.1199ZM12.9499 12V8.36364H14.2212C14.4745 8.36364 14.6835 8.40743 14.848 8.49503C15.0125 8.58144 15.135 8.69803 15.2155 8.84482C15.296 8.99041 15.3363 9.15199 15.3363 9.32955C15.3363 9.4858 15.3085 9.61482 15.2528 9.71662C15.1984 9.81842 15.1262 9.89891 15.0362 9.9581C14.9474 10.0173 14.851 10.0611 14.7468 10.0895V10.125C14.8581 10.1321 14.9699 10.1712 15.0824 10.2422C15.1948 10.3132 15.2889 10.415 15.3647 10.5476C15.4404 10.6802 15.4783 10.8423 15.4783 11.0341C15.4783 11.2164 15.4369 11.3803 15.354 11.5259C15.2712 11.6715 15.1404 11.7869 14.9616 11.8722C14.7829 11.9574 14.5503 12 14.2638 12H12.9499ZM13.3903 11.6094H14.2638C14.5515 11.6094 14.7557 11.5537 14.8764 11.4425C14.9983 11.33 15.0593 11.1939 15.0593 11.0341C15.0593 10.911 15.0279 10.7973 14.9652 10.6932C14.9024 10.5878 14.8131 10.5038 14.6971 10.4411C14.5811 10.3771 14.4438 10.3452 14.2851 10.3452H13.3903V11.6094ZM13.3903 9.96165H14.207C14.3396 9.96165 14.4591 9.93561 14.5657 9.88352C14.6734 9.83144 14.7586 9.75805 14.8214 9.66335C14.8853 9.56866 14.9172 9.45739 14.9172 9.32955C14.9172 9.16974 14.8616 9.03421 14.7503 8.92294C14.6391 8.81049 14.4627 8.75426 14.2212 8.75426H13.3903V9.96165Z" fill="white"/>
</g>
</svg>
