<svg width="44" height="44" viewBox="0 0 44 44" fill="none" xmlns="http://www.w3.org/2000/svg">
<g clip-path="url(#clip0_110_4999)">
<path d="M23.7767 12.7695L24.846 15.0926C25.1844 15.8311 25.9921 16.2772 26.8306 16.1926L29.4614 15.9157L31.2383 18.8618L29.6767 20.908C29.1767 21.5618 29.1767 22.4465 29.6767 23.1003L31.2383 25.1465L29.4614 28.0926L26.8306 27.8157C25.9921 27.7311 25.1921 28.1695 24.846 28.9157L23.7767 31.2388H20.2306L19.1614 28.9157C18.8229 28.1772 18.0152 27.7311 17.1767 27.8157L14.546 28.0926L12.769 25.1465L14.3306 23.1003C14.8306 22.4465 14.8306 21.5618 14.3306 20.908L12.769 18.8618L14.546 15.9157L17.1767 16.1926C18.0152 16.2772 18.8152 15.8388 19.1614 15.0926L20.2306 12.7695H23.7767Z" stroke="black" stroke-width="2" stroke-linecap="round" stroke-linejoin="round"/>
<path d="M21.9998 24.9849C23.7161 24.9849 25.1075 23.6486 25.1075 22.0002C25.1075 20.3519 23.7161 19.0156 21.9998 19.0156C20.2835 19.0156 18.8921 20.3519 18.8921 22.0002C18.8921 23.6486 20.2835 24.9849 21.9998 24.9849Z" stroke="black" stroke-width="2" stroke-linecap="round" stroke-linejoin="round"/>
</g>
<defs>
<clipPath id="clip0_110_4999">
<rect width="20" height="20" fill="white" transform="translate(12 12)"/>
</clipPath>
</defs>
</svg>
