<svg width="21" height="21" viewBox="0 0 21 21" fill="none" xmlns="http://www.w3.org/2000/svg">
<mask id="mask0_24_1243" style="mask-type:alpha" maskUnits="userSpaceOnUse" x="0" y="0" width="21" height="21">
<circle cx="10.5" cy="10.5" r="10.5" fill="#D9D9D9"/>
</mask>
<g mask="url(#mask0_24_1243)">
<circle cx="10" cy="10" r="12" fill="#044DA1"/>
<path d="M7.5625 13H6.44034V9.36364H7.61222C7.96496 9.36364 8.26681 9.43643 8.51776 9.58203C8.7687 9.72644 8.96106 9.93419 9.09482 10.2053C9.22857 10.4751 9.29545 10.7983 9.29545 11.1747C9.29545 11.5535 9.22798 11.8796 9.09304 12.1531C8.9581 12.4253 8.7616 12.6348 8.50355 12.7816C8.2455 12.9272 7.93182 13 7.5625 13ZM6.88068 12.6094H7.53409C7.83475 12.6094 8.08393 12.5514 8.28161 12.4354C8.47929 12.3194 8.62666 12.1542 8.72372 11.94C8.82079 11.7257 8.86932 11.4706 8.86932 11.1747C8.86932 10.8812 8.82138 10.6284 8.7255 10.4165C8.62962 10.2035 8.48639 10.0401 8.29581 9.92649C8.10523 9.81167 7.8679 9.75426 7.58381 9.75426H6.88068V12.6094ZM12.1199 10.5C12.0808 10.3804 12.0293 10.2733 11.9654 10.1786C11.9027 10.0827 11.8275 10.0011 11.7399 9.93359C11.6535 9.86612 11.5553 9.81463 11.4452 9.77912C11.3351 9.74361 11.2143 9.72585 11.083 9.72585C10.8675 9.72585 10.6716 9.78149 10.4952 9.89276C10.3189 10.004 10.1786 10.168 10.0744 10.3846C9.97027 10.6012 9.91818 10.867 9.91818 11.1818C9.91818 11.4967 9.97086 11.7624 10.0762 11.979C10.1816 12.1957 10.3242 12.3596 10.5041 12.4709C10.684 12.5821 10.8865 12.6378 11.1114 12.6378C11.3197 12.6378 11.5032 12.5934 11.6618 12.5046C11.8216 12.4147 11.9459 12.288 12.0347 12.1246C12.1246 11.9601 12.1696 11.7666 12.1696 11.544L12.3045 11.5724H11.2108V11.1818H12.5957V11.5724C12.5957 11.8719 12.5318 12.1323 12.404 12.3537C12.2773 12.575 12.1021 12.7467 11.8784 12.8686C11.6559 12.9893 11.4002 13.0497 11.1114 13.0497C10.7894 13.0497 10.5065 12.974 10.2626 12.8224C10.02 12.6709 9.83059 12.4555 9.69446 12.1761C9.55952 11.8968 9.49205 11.5653 9.49205 11.1818C9.49205 10.8942 9.53052 10.6355 9.60746 10.4059C9.68558 10.1751 9.79567 9.97857 9.93771 9.81641C10.0798 9.65424 10.2478 9.52995 10.442 9.44354C10.6361 9.35713 10.8498 9.31392 11.083 9.31392C11.2747 9.31392 11.4535 9.34292 11.6192 9.40092C11.7861 9.45774 11.9346 9.53883 12.0648 9.64418C12.1962 9.74834 12.3057 9.87322 12.3933 10.0188C12.4809 10.1632 12.5413 10.3236 12.5744 10.5H12.1199ZM12.9499 13V9.36364H14.2212C14.4745 9.36364 14.6835 9.40743 14.848 9.49503C15.0125 9.58144 15.135 9.69803 15.2155 9.84482C15.296 9.99041 15.3363 10.152 15.3363 10.3295C15.3363 10.4858 15.3085 10.6148 15.2528 10.7166C15.1984 10.8184 15.1262 10.8989 15.0362 10.9581C14.9474 11.0173 14.851 11.0611 14.7468 11.0895V11.125C14.8581 11.1321 14.9699 11.1712 15.0824 11.2422C15.1948 11.3132 15.2889 11.415 15.3647 11.5476C15.4404 11.6802 15.4783 11.8423 15.4783 12.0341C15.4783 12.2164 15.4369 12.3803 15.354 12.5259C15.2712 12.6715 15.1404 12.7869 14.9616 12.8722C14.7829 12.9574 14.5503 13 14.2638 13H12.9499ZM13.3903 12.6094H14.2638C14.5515 12.6094 14.7557 12.5537 14.8764 12.4425C14.9983 12.33 15.0593 12.1939 15.0593 12.0341C15.0593 11.911 15.0279 11.7973 14.9652 11.6932C14.9024 11.5878 14.8131 11.5038 14.6971 11.4411C14.5811 11.3771 14.4438 11.3452 14.2851 11.3452H13.3903V12.6094ZM13.3903 10.9616H14.207C14.3396 10.9616 14.4591 10.9356 14.5657 10.8835C14.6734 10.8314 14.7586 10.758 14.8214 10.6634C14.8853 10.5687 14.9172 10.4574 14.9172 10.3295C14.9172 10.1697 14.8616 10.0342 14.7503 9.92294C14.6391 9.81049 14.4627 9.75426 14.2212 9.75426H13.3903V10.9616Z" fill="white"/>
</g>
</svg>
