<svg width="21" height="21" viewBox="0 0 21 21" fill="none" xmlns="http://www.w3.org/2000/svg">
<circle cx="10.5" cy="10.5" r="10.5" fill="#0063A7"/>
<mask id="mask0_24_3075" style="mask-type:alpha" maskUnits="userSpaceOnUse" x="0" y="0" width="21" height="21">
<circle cx="10.5" cy="10.5" r="10.5" fill="#D9D9D9"/>
</mask>
<g mask="url(#mask0_24_3075)">
<path d="M7.82546 13.0918H7.15576V15.0005H7.82546V13.0918Z" fill="white"/>
<path d="M8.9772 13.5758H7.15479V12.932H8.97636C9.24173 12.932 9.45854 12.7244 9.45854 12.4685C9.45854 12.2127 9.24256 12.0051 8.97636 12.0051H7.15479V11.3613H8.97636C9.6109 11.3613 10.1282 11.8578 10.1282 12.4685C10.1282 13.0793 9.61173 13.5758 8.97636 13.5758H8.9772Z" fill="white"/>
<path d="M13.9958 11.2988H10.6523V11.9426H13.9958V11.2988Z" fill="white"/>
<path d="M13.9957 14.9012H10.6396V12.7656H13.9957V13.4094H11.3093V14.2575H13.9957V14.9012Z" fill="white"/>
<path d="M10.089 10.6982H9.11373C7.94846 10.6982 7 9.86864 7 8.84912C7 7.82961 7.94846 7 9.11457 7H10.0898V7.64373H9.11457C8.31763 7.64373 7.6697 8.18447 7.6697 8.84832C7.6697 9.51217 8.31763 10.0529 9.11457 10.0529H10.0898V10.6966L10.089 10.6982Z" fill="white"/>
<path d="M14.0001 10.7143H10.6943L11.4159 8.64554L12.0513 8.84993L11.6252 10.0706H13.0651L12.0521 7.2076L12.6858 7L14.0001 10.7143Z" fill="#E72E29"/>
</g>
</svg>
