<svg width="21" height="21" viewBox="0 0 21 21" fill="none" xmlns="http://www.w3.org/2000/svg">
<mask id="mask0_24_1258" style="mask-type:alpha" maskUnits="userSpaceOnUse" x="0" y="0" width="21" height="21">
<circle cx="10.5" cy="10.5" r="10.5" fill="#D9D9D9"/>
</mask>
<g mask="url(#mask0_24_1258)">
<circle cx="11" cy="10" r="11" fill="#009576"/>
<path d="M11.3167 6C11.6267 6.13386 12.8767 6.84486 13.0334 7.06644C12.37 7.158 11.1067 7.5482 10.4667 7.89882C11.2 7.73164 12.2217 7.64254 12.925 7.60402C12.6517 8.02437 12.5017 8.23938 12.0583 8.73985C12.8183 8.26505 13.03 8.2321 13.7333 7.80344C13.9967 8.21131 14.065 9.15435 14.075 9.90174C14.305 9.42693 14.5833 7.64216 14.4667 7.31791C14.89 7.02939 14.89 6.91491 15 6.71965C14.5733 6.75921 14.3333 6.76644 14.1 6.84103C13.5134 6.46577 12.3033 6.07974 11.3167 6ZM9.65005 8.26302C9.46007 8.29219 8.92337 8.54256 8.5667 8.83529C8.5667 8.83529 8.33001 8.80514 7.93332 8.81795C7.53669 8.836 7.01666 8.94004 6.81668 9.02601C7.20338 9.04473 7.73004 9.14532 7.93332 9.35552C7.93332 9.35552 7.34334 9.90869 6.76666 11.1157C6.76666 11.1157 7.82666 10.0884 8.28331 9.8324C8.28331 9.8324 8.51668 10.6676 8.68331 11.081C8.68331 11.081 8.83164 10.1178 9.07495 9.56359C9.07495 9.56359 9.14328 9.51953 9.48332 9.48555C9.81994 9.45435 10.295 9.43181 11.2083 9.59828C11.2083 9.59828 10.37 9.0444 9.33331 8.89598C9.37334 8.74822 9.52003 8.4312 9.65005 8.26302ZM6.66667 11.5404C6.59998 12.1339 6.57831 12.5663 6.65836 13.0405C6.39837 13.114 6.21334 13.1758 6 13.2745C6.29996 13.4664 6.5467 13.6172 6.88332 13.7774C7.06 14.177 7.24167 14.4422 7.54168 14.7485C7.47168 14.4874 7.45669 14.2778 7.48335 14.0028C7.86006 14.117 8.17338 14.1794 8.6 14.1936C8.19337 14.0375 7.90334 13.8544 7.58334 13.5433C7.68001 13.2707 7.79005 13.0525 7.96667 12.7803C7.64004 12.8289 7.40004 12.8702 7.1167 12.9276C6.88669 12.5078 6.78333 12.101 6.66667 11.5404ZM11.65 13.3873C11.3634 13.5972 11.1134 13.7608 10.7833 13.9249C10.7667 13.764 10.7566 13.6284 10.75 13.448C10.5633 13.7061 10.4067 13.9041 10.2 14.1416C9.84997 14.2408 9.57331 14.279 9.23332 14.2804C9.43998 14.3924 9.65 14.4603 9.86665 14.5058C9.65 14.7121 9.46002 14.8599 9.24994 15C9.60661 14.9119 10.0699 14.7524 10.4167 14.5405C10.5966 14.5467 10.7766 14.5384 10.8999 14.5144C10.8699 14.4028 10.8466 14.3192 10.8166 14.1763C11.1467 13.9117 11.38 13.6741 11.65 13.3873Z" fill="white"/>
</g>
</svg>
